<?xml version="1.0" encoding="UTF-8" standalone="no"?><!DOCTYPE svg PUBLIC "-//W3C//DTD SVG 1.1//EN" "http://www.w3.org/Graphics/SVG/1.1/DTD/svg11.dtd"><svg width="100%" height="100%" viewBox="0 0 4016 909" version="1.1" xmlns="http://www.w3.org/2000/svg" xmlns:xlink="http://www.w3.org/1999/xlink" xml:space="preserve" xmlns:serif="http://www.serif.com/" style="fill-rule:evenodd;clip-rule:evenodd;stroke-miterlimit:10;"><path d="M1225.11,175.648c-0.591,-1.421 -4.604,0.188 -8.675,-2.308c-0.695,-0.425 -1.387,-0.975 -2.02,-1.6c-4.905,5.517 -9.188,11.871 -12.325,19.233c-0.038,0.075 -0.055,0.15 -0.088,0.229c2.854,-1.262 5.638,-2.704 8.713,-4.329c6.575,-3.475 15.308,-9.046 14.395,-11.225" style="fill:#231f20;fill-rule:nonzero;"/><path d="M1450.03,354.097c-35.679,-18.646 -65.733,15.625 -97.87,-3.263c-29.184,-17.146 -42.496,-67.787 -26.105,-97.871c22.792,-41.829 93.421,-26.366 97.875,-48.941c2.455,-12.438 -15.833,-33.225 -44.012,-48.746c-1.067,0.929 -2.896,1.371 -4.213,1.671c-4.083,0.929 -6.879,0.275 -11.52,-0.338c-8.08,-1.079 -12.18,-1.575 -15.134,0.296c-2.062,1.308 -3.933,3.762 -3.596,6.029c0.388,2.604 3.563,3.983 6.367,5.204c2.983,1.3 4.313,1.204 10.517,2.504c5.487,1.155 8.237,1.73 10.425,2.825c4.429,2.217 6.871,5.325 7.833,6.684c1.492,2.121 4.058,5.758 3.238,10.383c-0.192,1.096 -0.688,3.9 -3.28,5.958c-2.354,1.875 -5.062,2.03 -6.087,2.075c-4.063,0.18 -6.883,-1.866 -7.742,-2.512c-2.579,-1.938 -3.146,-3.971 -4.929,-7.617c-2.358,-4.829 -5.442,-10.971 -11.446,-15.037c-4.133,-2.796 -6.854,-2.721 -7.929,-2.617c-0.517,0.05 -4.687,0.45 -6.054,2.967c-1.9,3.491 4.137,6.391 4.079,13.496c-0.033,4.287 -2.254,5.416 -1.004,8.158c1.062,2.321 2.979,2.225 6.862,5.996c2.567,2.487 3.913,3.796 3.838,5.608c-0.142,3.475 -5.45,7.079 -8.304,6.15c-0.917,-0.296 -1.5,-1.037 -3.65,-8.492c-1.988,-6.92 -1.829,-7.483 -2.959,-9.095c-2.466,-3.513 -4.433,-2.555 -6.741,-6.171c-2.046,-3.221 -1.109,-4.938 -3.492,-7.034c-0.496,-0.437 -2.696,-2.258 -5.867,-2.166c-3.77,0.108 -6.325,2.846 -7.054,3.633c-2.246,2.408 -1.362,3.525 -3.5,5.704c-2.875,2.925 -6.891,3.379 -7.591,3.45c-3.105,0.304 -3.713,-0.866 -6.959,-1.179c-6,-0.583 -13.008,2.533 -13.479,5.675c-0.196,1.325 0.917,1.742 2.363,4.088c0.85,1.379 3.883,6.791 2.02,12.291c-2.041,6.034 -8.75,8.538 -9.525,8.817c-4.912,1.754 -12.091,1.75 -14.233,-1.546c-1.254,-1.925 0.117,-3.567 1.721,-10.112c1.942,-7.921 3.271,-13.35 0.383,-16.267c-2.441,-2.467 -7.279,-2.5 -10.516,-1.475c-3.988,1.267 -4.167,3.721 -9.905,8.317c-3.566,2.858 -8.912,7.145 -12.487,5.716c-2.413,-0.962 -3.342,-4.262 -3.088,-6.671c0.484,-4.533 5.363,-7.475 7.28,-8.625c6.216,-3.741 10.879,-2.495 12.77,-5.925c0.938,-1.704 0.892,-4.029 -0.312,-5.175c-1.758,-1.683 -5.638,-0.529 -8.892,0.438c-3.308,0.979 -5.529,2.154 -9.087,4.075c-7.092,3.825 -10.638,5.737 -11.679,6.437c-6.188,4.138 -5.846,5.6 -10.9,9.267c-2.646,1.917 -5.217,3.229 -8.53,4.567c-8.295,55.85 71.259,102.296 79.192,197.333c9.9,118.604 -102.179,189.258 -68.512,238.158c17.658,25.655 61.083,24.505 123.975,22.838c73.087,-1.933 147.379,-22.217 146.808,-39.15c-0.613,-18.133 -86.396,-10.817 -107.663,-58.721c-10.35,-23.321 -3.416,-55.229 13.05,-75.037c31.421,-37.796 83.955,-15.209 101.138,-45.675c14.492,-25.7 -4.246,-74.813 -35.888,-91.35" style="fill:#231f20;fill-rule:nonzero;"/><path d="M1355.42,151.625c3.65,0.808 5.525,-0.988 12.084,-2.334c0.121,-0.021 0.221,-0.037 0.337,-0.062c-3.887,-1.754 -7.916,-3.392 -12.054,-4.892c-2.933,1.446 -5.05,2.971 -4.921,4.383c0.171,1.892 4.292,2.842 4.554,2.905" style="fill:#231f20;fill-rule:nonzero;"/><path d="M2677.09,81.61c-48.087,16.966 -69.821,63.75 -87.796,102.429c-42.85,92.221 -32.329,177.633 -14.633,307.296c18.713,137.133 42.879,154.683 53.654,160.962c52.338,30.509 142.817,1.571 165.842,-48.775c22.287,-48.746 -29.029,-94.875 -0,-141.454c21.083,-33.829 59.258,-27.308 68.287,-58.529c8.48,-29.325 -16.295,-65.85 -43.9,-82.925c-50.287,-31.1 -126.916,-8.125 -136.575,24.392c-5.333,17.95 12.725,28.8 29.267,63.408c32.629,68.267 24.192,155.396 4.875,160.962c-21.125,6.092 -81.892,-77.687 -87.796,-170.716c-4.246,-66.896 18.859,-154.625 82.921,-199.988c65.771,-46.571 136.463,-21.391 141.454,-43.896c6.196,-27.962 -95.191,-101.541 -175.6,-73.166" style="fill:#231f20;fill-rule:nonzero;"/><path d="M2544.58,218.841c-0.196,0.075 -0.396,0.175 -0.604,0.387c-0.354,0.371 -0.6,0.85 -0.713,1.075c-0.596,1.192 -0.771,2.521 -0.841,3.092c-0.246,1.962 -0.009,3.783 0.387,6.546c0.896,6.25 1.246,7.887 0.779,8.687c-0.321,0.554 -0.95,0.567 -1.362,0.121c-0.925,-1.008 -0.421,-4.012 -0.713,-9.283c-0.208,-3.704 -0.446,-7.992 -1.75,-8.925c-0.971,-0.696 -2.25,0.65 -2.921,1.904c-0.579,1.075 -0.833,2.308 -1.037,3.808c-0.542,3.925 -0.442,7.304 -0.258,11.304c0.22,4.917 0.333,7.375 0.516,9.284c0.959,9.991 2.484,10.479 3.179,18.446c0.2,2.283 1.134,12.995 -1.429,16.187c-0.558,0.7 -1.437,1.225 -2.787,3.213c-0.871,1.283 -1.421,2.091 -1.75,3.333c-0.679,2.542 0.021,5.154 0.516,8.212c0,0 0.955,5.867 0.65,12.85c-0.083,1.9 -0.4,9.15 -3.375,14.405c-0.82,1.454 -2.958,5.225 -5.383,4.283c-1.837,-0.717 -2.862,-3.758 -3.242,-4.879c-0.662,-1.959 -1.195,-4.654 -1.02,-12.167c0.183,-7.987 0.875,-8.737 1.17,-17.329c0.196,-5.638 0.288,-8.458 0.088,-11.204c-0.333,-4.467 -0.992,-7.025 -0.221,-10.254c0.35,-1.463 0.804,-2.255 0.867,-4.055c0.087,-2.379 -0.634,-2.687 -0.779,-5.087c-0.23,-3.821 1.462,-5.229 1,-8.825c-0.196,-1.508 -0.53,-1.529 -0.609,-3.1c-0.096,-1.854 0.325,-2.742 0.175,-4.85c-0.062,-0.842 -0.166,-1.204 -0.35,-2.225c0,-0 -0.504,-2.829 -0.691,-6.2c-0.263,-4.729 0.529,-7.021 -0.259,-8.183c-0.221,-0.321 -0.566,-0.571 -0.866,-0.4c-0.638,0.362 -0.8,2.429 -1,5.804c-0.271,4.625 -0.409,6.937 -0.425,8.533c-0.059,5.342 0.22,7.121 -0.567,8.638c-0.483,0.933 -1.321,1.683 -1.883,1.212c-1.009,-0.85 -0.959,-5.475 -0.375,-8.817c0.25,-1.445 0.375,-1.354 1.225,-4.491c0.908,-3.371 1.441,-5.346 1.77,-7.979c0.309,-2.45 0.796,-6.375 -0.266,-8.263c-0.571,-1.021 -1.021,-0.429 -1.979,-1.9c-0.784,-1.212 -0.763,-2.05 -1.6,-2.937c-0.525,-0.563 -0.63,-0.33 -1.413,-1.038c-0.921,-0.837 -1.025,-1.387 -1.508,-1.729c-0.584,-0.417 -1.221,-0.158 -2.917,1.383c-1.775,1.604 -2.496,2.604 -3.062,3.175c-9.171,72.7 -12.784,197.579 -1.384,317.359c3.063,32.187 12.063,126.8 24.388,126.816c13.983,0.025 28.575,-121.771 29.266,-229.25c0.488,-75.904 -5.854,-160.883 -14.637,-216.687" style="fill:#231f20;fill-rule:nonzero;"/><path d="M3556.76,156.166c1.321,-4.554 1.471,-9.296 1.533,-11.521c0.117,-3.975 -0.367,-5.362 -0.737,-6.066c-0.134,-0.254 -0.367,-0.575 -0.875,-0.909c-0.059,5.913 -0.03,12.096 0.079,18.496" style="fill:#231f20;fill-rule:nonzero;"/><path d="M3667.84,271.616c-12.083,-48.079 -29.863,-95.691 -47.492,-131.887c-0.783,1.554 -2.2,2.758 -2.437,2.954c-2.179,1.787 -3.734,0.867 -4.059,2.25c-0.245,1.05 0.575,1.912 1.45,4.887c0.705,2.396 1.625,6.788 0.875,8.088c-0.704,1.225 -2.17,-1.575 -3.504,-0.35c-1.512,1.392 -1.708,6.879 -1.525,10.204c0.309,5.496 1.692,5.713 2.175,11.358c0.438,5.221 -0.646,6.196 -0.121,10.863c0.371,3.304 1.321,5.533 3.217,9.992c2.604,6.12 4.046,7.395 5.413,12.9c0.375,1.529 1.279,5.179 0.616,6.266c-0.525,0.867 -1.904,-0.108 -2.804,-1.325c-2.167,-2.916 -1.546,-7.183 -2.917,-11.991c-1.541,-5.396 -3.266,-3.325 -6.329,-9.317c-3.546,-6.95 -2.512,-12.267 -6.146,-16.354c-1.462,-1.65 -3.858,-3.296 -4.883,-1.613c-0.937,1.546 -0.408,5.384 -0.183,7.038c0.691,5 2.121,5.762 2.137,9.546c0.013,3.079 -0.925,5.854 -1.341,5.779c-0.58,-0.1 0.05,-5.713 -1.871,-10.538c-0.296,-0.741 -1.042,-2.612 -1.559,-2.279c-1.145,0.738 0.088,11.521 -0.829,12.038c-0.446,0.25 -1.196,-2.034 -1.608,-3.688c-1.446,-5.854 -0.088,-9.958 -1.579,-12.342c-0.7,-1.12 -1.863,-1.583 -2.713,-0.916c-1.716,1.337 -1.633,6.783 -2.6,6.933c-0.608,0.1 -1.183,-1.987 -1.396,-3.479c-0.375,-2.625 0.284,-3.963 0.259,-6.225c-0.05,-4.346 -2.604,-8.758 -4.184,-8.021c-0.516,0.242 -1.329,1.225 -2.325,8.354c-1.05,7.513 -1.15,13.621 -1.216,21.484c-0.109,12.704 -0.025,17.862 -1.213,18.666c-0.775,0.521 -1.696,-1.071 -1.821,-1.283c-2.35,-4.067 -0.304,-12.646 1.784,-29.708c-0,-0 2.366,-19.388 0.591,-35.596c-0.158,-1.438 -0.62,-5.309 -1.645,-5.504c-0.659,-0.121 -1.271,1.316 -4.092,8.487c-2.117,5.371 -2.946,7.542 -4.171,7.675c-1.071,0.117 -1.446,-1.433 -2.162,-0.896c-1.38,1.038 -0.609,7.242 -2.117,8.567c-0.896,0.792 -2.008,-0.679 -2.163,-0.896c-0.962,-1.321 -1.25,-3.658 -1.095,-5.479c0.262,-2.992 1.633,-3.529 1.687,-6.167c0.038,-1.833 -0.579,-3.841 -1.371,-4.083c-1.037,-0.308 -2.104,2.483 -2.575,3.717c-0.683,1.783 -0.875,3.05 -1.071,4.345c2.063,80.95 14.58,188.875 3.605,190.467c-11.271,1.633 -14.7,-113.662 -97.555,-199.983c-54.079,-56.342 -136.829,-94.959 -160.962,-73.167c-28.221,25.479 55.092,105.192 73.167,253.638c20.958,172.129 -64.009,287.083 -19.513,317.05c25.008,16.845 75.963,-3.225 102.433,-34.142c52.196,-60.967 7.296,-161.888 29.267,-170.721c30.083,-12.092 105.067,180.913 156.083,170.721c46.971,-9.383 63.913,-189.075 24.388,-346.317" style="fill:#231f20;fill-rule:nonzero;"/><path d="M1008.12,304.994c-7.966,-48.925 -37.679,-94.608 -71.996,-127.104c-1.204,0.441 -1.829,0.975 -2.125,1.321c-2.012,2.345 -0.758,5.966 -0.562,6.5c0.737,2.029 2.108,3.308 3.237,4.333c3.2,2.912 5.105,2.383 6.271,4.471c1.209,2.162 0.613,5.296 -1.083,6.512c-1.171,0.838 -1.908,0.079 -3.271,0.963c-1.687,1.096 -1.012,2.579 -2.967,4.95c-1.27,1.533 -1.85,1.262 -2.333,2.337c-0.787,1.763 0.383,3.292 1.175,6.071c0.633,2.204 1.75,6.1 0.017,8.688c-1.679,2.508 -5.692,3.266 -8.542,2.958c-3.525,-0.383 -5.779,-2.463 -6.787,-1.567c-0.455,0.4 -0.284,1.079 0.004,2.896c0.65,4.1 0.971,6.15 0.55,7.479c-0.679,2.138 -2.913,4.079 -5.217,4.192c-2.583,0.125 -3.837,-2.117 -5.229,-1.596c-1.021,0.379 -1.475,2.013 -1.188,7.908c0.45,9.28 1.846,10.709 0.505,13.971c-1.263,3.079 -2.971,2.929 -3.813,6.263c-0.45,1.775 -0.221,2.821 0.463,7.679c1.341,9.562 0.954,9.021 1.504,10.554c1.187,3.329 2.191,3.629 4.429,9.204c1.521,3.792 1.621,5.063 0.962,5.975c-1.05,1.446 -3.658,1.479 -5.35,1c-3.033,-0.858 -4.345,-3.696 -4.583,-4.204c-1.025,-2.212 -0.221,-3.171 -0.475,-6.483c-0.304,-3.963 -1.796,-7 -2.742,-8.934c-1.67,-3.404 -2.508,-3.4 -4.5,-7.304c-0.412,-0.804 -1.662,-3.325 -2.687,-6.737c-1.375,-4.6 -1.317,-7.421 -3.663,-11.517c-0.75,-1.317 -1.362,-2.083 -2.137,-2.154c-2.054,-0.188 -4.354,4.579 -4.354,4.579c-0,0 -0.329,3.613 -0.959,6.804c-0.737,3.709 -1.104,5.563 -2.52,6.838c-1.438,1.296 -3.98,2.312 -5.53,1.404c-1.208,-0.704 -1.475,-2.388 -1.962,-5.45c-0.496,-3.108 -0.175,-4.338 -0.979,-4.775c-1.329,-0.729 -3.213,2.071 -5.004,1.392c-1.634,-0.617 -1.971,-3.667 -2.18,-5.55c-0.241,-2.142 0.096,-2.755 0.167,-6.192c0.079,-3.767 0.096,-5.663 -0.871,-6.175c-1.066,-0.571 -2.079,1.033 -5.4,1.7c-1.333,0.271 -4.1,0.825 -5.458,-0.492c-0.454,-0.441 -0.854,-1.2 -0.492,-5.287c0.304,-3.463 0.667,-3.759 0.817,-5.904c0.167,-2.388 0.475,-6.917 -1.971,-8.35c-1.625,-0.955 -3.708,-0.092 -3.858,-0.025c-2.613,1.12 -3.154,4.208 -4.046,7.366c-1.842,6.521 -2.721,4.625 -5.15,12.179c-2.396,7.438 -1.954,10.555 -5.438,13.984c-0.608,0.6 -3.025,2.979 -4.625,2.283c-1.75,-0.754 -1.504,-4.725 -1.445,-5.462c0.3,-3.85 2.304,-6.509 3.183,-7.75c4.237,-5.98 1.621,-6.175 7.617,-18.317c2.929,-5.925 5.954,-10.746 4.541,-11.971c-0.941,-0.817 -3.096,0.633 -4.2,-0.421c-1.058,-1.004 -0.187,-3.375 0.371,-4.896c1.096,-3.004 2.271,-3.891 4.258,-7.27c0.717,-1.217 3.363,-5.717 2.559,-6.342c-0.475,-0.371 -1.854,0.862 -4.896,2.887c-4.842,3.23 -4.808,2.413 -8.7,5.063c-4.479,3.05 -5.917,5.087 -8.517,4.654c-1.296,-0.212 -1.625,-0.829 -2.766,-0.746c-2.167,0.163 -3.18,2.534 -4.842,5.084c-0,-0 -3.2,4.925 -8.529,8.754c-0.004,-0 -0.017,0.008 -0.021,0.012c-1.542,34.85 -4.367,81.534 -13.283,144.079c-19.825,139.075 -46.834,195.53 -8.842,247.559c20.612,28.225 58.558,52.687 88.412,44.208c30.538,-8.679 39.475,-48.087 61.892,-119.362c59.358,-188.705 83.413,-187.992 75.154,-238.717" style="fill:#231f20;fill-rule:nonzero;"/><path d="M849.325,393.363c-17.667,21.129 -12.475,49.883 -9.009,69.075c3.534,19.558 14.417,54.408 27.03,54.058c11.8,-0.329 11.35,-31.075 39.041,-90.096c14.463,-30.829 23.009,-40.396 18.021,-48.054c-8.908,-13.687 -53.862,-10.367 -75.083,15.017" style="fill:#fff;fill-rule:nonzero;"/><path d="M3971.58,279.432c-55.629,-47.738 -142.533,-17.105 -150.304,-44.205c-5.046,-17.604 31.308,-31.579 70.729,-83.995c29.529,-39.255 65.321,-106.117 48.629,-123.78c-3.041,-3.22 -7.895,-4.85 -14.137,-5.083c-0.3,1.492 -1.054,2.304 -0.642,3.329c0.192,0.479 0.421,0.479 2.263,1.834c1.546,1.141 1.758,1.42 1.916,1.695c0.15,0.267 0.938,1.7 0.417,2.971c-0.508,1.238 -2.004,1.696 -4.117,2.346c-2.216,0.679 -3.283,0.579 -3.379,0.996c-0.133,0.55 1.642,1.121 4.667,2.787c3.858,2.117 4.421,3.071 4.696,3.73c0.512,1.22 0.762,3.145 -0.054,4.654c-0.738,1.366 -1.659,1.104 -2.75,2.421c-1.405,1.687 -1.463,4.029 -1.53,6.87c-0.095,3.934 0.75,5.325 -0.258,6.675c-0.85,1.146 -1.658,0.43 -3.108,1.813c-1.029,0.983 -1.521,2.429 -2.504,5.317c-0.596,1.75 -0.605,2.229 -0.446,2.629c0.416,1.05 1.604,0.612 2.341,1.629c0.809,1.112 0.346,2.958 -0.133,4.858c-0.512,2.042 -0.971,3.867 -2.104,4.309c-1.583,0.616 -3.388,-1.884 -3.546,-2.109c-1.008,-1.429 -1.042,-2.75 -1.517,-2.704c-0.537,0.054 -1.154,1.788 -1.362,3.433c-0.513,4.025 1.667,5.434 0.917,9.25c-0.371,1.88 -1.109,2.588 -1.296,2.759c-0.804,0.733 -1.754,0.791 -3.129,0.862c-1.734,0.088 -1.896,-0.3 -3.5,-0.216c-1.875,0.1 -1.888,0.645 -3.221,0.591c-2.238,-0.091 -3.334,-1.679 -3.946,-1.096c-0.488,0.459 0.192,1.48 -0.446,2.63c-0.579,1.041 -1.783,1.366 -2.175,1.475c-1.704,0.462 -2.3,-0.555 -3.154,-0.08c-0.954,0.53 -0.867,2.163 -1.475,5.725c-0.85,4.98 -1.621,5.288 -1.346,7.417c0.279,2.204 1.108,1.854 2,5c0.496,1.75 1.213,4.396 0.271,7.354c-0.292,0.913 -0.796,2.496 -2.213,3.567c-1.112,0.846 -2.812,1.387 -4.07,0.725c-0.938,-0.496 -0.784,-1.208 -2.734,-3.658c-0.983,-1.238 -1.396,-1.521 -1.825,-1.421c-0.854,0.196 -0.891,1.729 -1.821,2.083c-1.154,0.438 -1.929,-1.625 -3.266,-1.296c-1.05,0.259 -1.696,1.796 -1.904,2.284c-0.859,2.041 -0.325,3.504 -0.096,6.275c0.212,2.558 0.562,6.85 -1.538,9.912c-0.241,0.346 -1.604,2.329 -2.846,2.142c-1.904,-0.284 -2.208,-5.5 -2.312,-7.225c-0.358,-6.154 1.071,-11.734 1.071,-11.734c0.737,-2.9 1.704,-5.25 0.679,-6.745c-0.542,-0.792 -1.096,-0.555 -1.904,-1.225c-1.621,-1.342 -1.092,-3.725 -1.5,-8.775c-0.354,-4.388 -0.85,-3.775 -1.338,-9.18c-0.308,-3.4 -0.25,-5.162 -0.729,-5.2c-0.808,-0.062 -2.262,4.867 -2.654,6.196c-1.092,3.7 -1.042,5.092 -2.354,7.95c-0.667,1.454 -1.709,3.713 -2.888,3.767c-1.237,0.054 -1.441,-2.363 -2.446,-2.375c-1.504,-0.017 -2.958,5.383 -5.158,11.517c-4.512,12.566 -6,11.037 -7.554,18.045c-0.325,1.459 -0.95,4.642 -3.217,7.609c-0.433,0.571 -2.8,3.587 -4.183,3.021c-1.267,-0.521 -1.025,-3.771 -0.967,-4.596c0.346,-4.684 2.534,-6.65 5.963,-13.534c3.483,-6.991 1.837,-6.179 4.979,-12.05c1.517,-2.845 3.175,-5.412 2.525,-7.883c-0.038,-0.142 -0.579,-2.092 -2.021,-2.437c-2.171,-0.525 -4.854,2.937 -6.271,4.762c-1.271,1.638 -1.266,2.083 -3.283,4.775c-2.379,3.175 -3.063,3.463 -3.575,3.492c-1.533,0.087 -2.621,-2.075 -3.146,-3.117c-1.304,-2.596 -0.825,-4.396 -1.737,-4.662c-0.825,-0.246 -2.005,1.129 -4.33,3.891c-2.125,2.525 -2.333,3.179 -3.804,4.571c-1.291,1.225 -3.383,3.208 -4.621,2.613c-1.358,-0.65 -0.575,-3.871 -1.725,-4.192c-0.691,-0.196 -1.295,0.896 -3.504,2.821c-2.179,1.896 -3.375,2.937 -4.45,2.679c-1.371,-0.338 -2.054,-2.679 -1.987,-4.529c0.066,-1.825 1.041,-3.396 2.987,-6.534c1.679,-2.704 3.779,-5.512 3.779,-5.512c0,-0 1.8,-4.9 0.617,-6.071c-0.45,-0.446 -1.25,-0.279 -2.467,0.192c-3.791,1.458 -5.533,3.529 -9.133,5.962c-2.679,1.809 -4.912,2.829 -5.633,3.146c-3.484,1.546 -3.917,1.013 -6.921,2.404c-1.708,0.788 -4.388,2.029 -7.038,4.692c-2.216,2.221 -2.4,3.425 -4.32,4.362c-0.442,0.217 -2.909,1.425 -5.021,0.113c-1.184,-0.729 -2.517,-2.413 -2.15,-4.125c0.229,-1.075 1.079,-1.925 4.25,-3.692c4.666,-2.591 5.379,-2.171 8.083,-3.808c1.246,-0.758 0.708,-0.617 7.413,-6.646c3.408,-3.067 4.183,-3.679 5.066,-5.242c1.654,-2.941 0.675,-3.912 1.954,-6.941c1.355,-3.2 2.975,-3.346 9.038,-9.742c3.854,-4.067 4.646,-5.533 4.354,-6.458c-0.183,-0.579 -0.729,-0.717 -1.375,-0.871c-13.696,10.317 -27.067,21.696 -39.35,33.833c-68.312,67.513 -118.821,173.625 -88.412,207.771c25.358,28.479 84.37,-18.508 163.566,17.683c14.359,6.563 61.384,28.05 70.734,70.734c11.412,52.133 -37.767,115.908 -88.417,123.779c-57.221,8.887 -100.921,-55.954 -123.779,-39.788c-15.525,10.984 -10.204,51.384 4.421,79.571c37.183,71.671 160.77,114.967 238.716,66.309c68.779,-42.93 69.963,-137.446 70.734,-198.93c0.62,-49.637 1.5,-119.916 -44.209,-159.145" style="fill:#231f20;fill-rule:nonzero;"/><path d="M1041.97,177.934c-2.141,0.271 -8.966,2.434 -14.279,32.634c-11.333,64.45 8.163,120.341 8.163,120.341c13,37.284 29.062,98.284 61.187,220.284c38.333,145.587 26.892,181.775 14.279,203.966c-17.566,30.9 -56.604,68.429 -89.746,59.15c-17.7,-4.954 -33.841,-23.287 -36.716,-42.833c-4.817,-32.754 30.379,-50.208 22.437,-71.388c-7.287,-19.437 -43.575,-22.483 -67.308,-24.475c-31.413,-2.637 -66.992,-5.625 -87.704,16.317c-25.846,27.375 -14.617,78.8 -0,108.1c32.166,64.492 114.808,90.096 177.45,87.708c70.116,-2.675 155.066,-41.941 179.491,-110.141c19.892,-55.55 -21.737,-70.625 -65.27,-248.842c-27.988,-114.571 -41.98,-171.854 -44.871,-201.925c-0,0 -4.042,-42.008 -26.517,-99.942c-7.342,-18.933 -19.758,-50.341 -30.596,-48.954" style="fill:#231f20;fill-rule:nonzero;"/><path d="M1041.97,177.934c-2.141,0.271 -8.966,2.434 -14.279,32.634c-11.333,64.45 8.163,120.341 8.163,120.341c13,37.284 29.062,98.284 61.187,220.284c38.333,145.587 26.892,181.775 14.279,203.966c-17.566,30.9 -56.604,68.429 -89.746,59.15c-17.7,-4.954 -33.841,-23.287 -36.716,-42.833c-4.817,-32.754 30.379,-50.208 22.437,-71.388c-7.287,-19.437 -43.575,-22.483 -67.308,-24.475c-31.413,-2.637 -66.992,-5.625 -87.704,16.317c-25.846,27.375 -14.617,78.8 -0,108.1c32.166,64.492 114.808,90.096 177.45,87.708c70.116,-2.675 155.066,-41.941 179.491,-110.141c19.892,-55.55 -21.737,-70.625 -65.27,-248.842c-27.988,-114.571 -41.98,-171.854 -44.871,-201.925c-0,0 -4.042,-42.008 -26.517,-99.942c-7.342,-18.933 -19.758,-50.341 -30.596,-48.954Z" style="fill:none;fill-rule:nonzero;stroke:#231f20;stroke-width:4.17px;"/><path d="M552.326,217.984c0.038,6.279 -0.295,7.741 -1.404,8.675c-0.837,0.704 -1.2,0.337 -2.279,1.233c-0.392,0.325 -1.108,1.008 -2.342,4.308c-0.825,2.2 -1.233,3.325 -1.004,4.309c0.3,1.304 1.196,2.004 1.942,2.766c3.437,3.534 4.446,9.138 4.217,12.438c-0.08,1.141 -0.338,2.5 -0,4.554c0.283,1.729 0.662,1.925 0.604,2.892c-0.117,1.933 -1.842,4.791 -4.754,4.92c-2.709,0.125 -5.159,-2.17 -5.088,-3.937c0.058,-1.479 1.863,-1.692 2.075,-3.325c0.183,-1.417 -1.192,-2.704 -3.95,-5.229c-2.283,-2.092 -4.1,-3.725 -5.087,-3.263c-1.067,0.496 -0.155,2.963 -1.409,3.571c-1.054,0.513 -2.221,-0.996 -3.546,-0.617c-1.32,0.375 -1.6,2.275 -2.279,4.863c-0.15,0.587 -1.058,3.158 -2.875,8.308c-2.066,5.854 -2.408,5.634 -2.612,7.575c-0.334,3.159 0.525,4.154 -0.467,6.463c-1.033,2.391 -2.292,2.1 -3.217,4.366c-1.179,2.913 0.671,3.942 -0.4,7.017c-0.941,2.704 -2.629,2.646 -2.945,4.983c-0.317,2.359 1.341,2.738 1.07,5.234c-0.275,2.575 -2.112,2.821 -2.075,5.296c0.03,1.8 1.017,2.225 0.671,3.875c-0.308,1.47 -1.166,1.508 -1.675,3.079c-0.641,1.975 0.467,2.683 0.067,4.429c-0.433,1.892 -2.408,3.983 -4.754,4.125c-2.938,0.175 -5.425,-2.775 -5.759,-5.233c-0.275,-2.055 0.93,-3.934 2.08,-5.725c1.62,-2.525 2.945,-3.096 2.745,-4.43c-0.212,-1.379 -1.858,-2.254 -3.283,-3.016c-3.092,-1.646 -4.479,-0.842 -6.025,-2.15c-1.842,-1.567 -1.746,-4.304 -1.687,-6.059c0.141,-4.1 2.254,-5.725 1.045,-7.575c-0.737,-1.129 -1.679,-0.758 -3.004,-2.283c-1.358,-1.554 -1.587,-3.329 -1.704,-4.329c-0.346,-3.004 0.946,-3.446 1.179,-6.608c0.284,-3.838 -1.316,-7.221 -2.225,-9.134c-1.016,-2.158 -1.471,-2.25 -2.079,-4.125c-0.996,-3.062 -0.542,-5.141 -1.521,-5.446c-0.775,-0.245 -1.804,0.821 -2.725,1.767c-0.887,0.921 -2.633,2.763 -3.362,5.888c-0.621,2.675 0.271,2.958 -0.396,5.812c-0.4,1.696 -1.021,4.333 -2.804,4.713c-1.288,0.279 -3.029,-0.65 -3.521,-1.913c-0.504,-1.275 0.554,-2.183 2.4,-5.962c1.925,-3.946 1.783,-5.03 1.679,-5.521c-0.346,-1.659 -1.579,-2.784 -2.479,-3.609c-1.238,-1.125 -2.433,-2.216 -4.004,-2.129c-1.954,0.1 -3.429,1.967 -4.004,3.384c-0.792,1.958 0.32,2.629 -0.4,4.633c-0.067,0.196 -1.18,3.142 -4.321,3.975c-0.375,0.104 -2.692,0.717 -4.488,-0.438c-3.058,-1.979 -1.625,-7.212 -1.516,-7.579c0.65,-2.275 1.525,-2.054 2.8,-5.008c1.72,-3.992 1.233,-6.958 1.12,-7.583c-0.108,-0.588 -0.745,-4.084 -2.325,-4.267c-1.55,-0.179 -3.141,2.958 -3.358,3.383c-1.058,2.079 -0.342,2.471 -1.362,4.713c-1.03,2.258 -2.084,2.575 -2.484,4.562c-0.216,1.084 -0.071,1.829 0.084,2.946c0.712,5.192 1.07,7.788 -0.242,9.496c-1.208,1.571 -3.833,2.496 -5.683,1.767c-2.2,-0.863 -3.067,-3.959 -2.405,-6.113c0.746,-2.412 3.125,-2.687 3.605,-5.371c0.237,-1.337 -0.338,-1.35 -0.321,-3.166c0.029,-2.984 1.591,-3.663 2.162,-6.842c0.454,-2.567 0.025,-5.413 -0.825,-5.571c-0.654,-0.125 -1.55,1.333 -2.187,2.367c-1.175,1.921 -1.046,2.833 -2.313,4.016c-0.266,0.25 -1.412,1.321 -2.154,1.013c-0.617,-0.246 -0.654,-1.304 -0.658,-1.546c-0.071,-2.042 1.846,-3.279 3.729,-5.404c3.387,-3.833 4.067,-7.629 4.612,-10.692c0.305,-1.704 0.238,-2.571 -0.191,-2.762c-0.479,-0.213 -1.3,0.475 -2.234,1.346c-2.733,2.554 -4.704,5.091 -5.733,6.404c-2.658,3.391 -3.571,4.375 -4.312,4.175c-0.475,-0.125 -0.796,-0.721 -0.809,-1.2c-0.029,-1.038 1.338,-1.846 1.804,-2.138c3.28,-2.046 7.471,-6.891 8.75,-11.171c0.455,-1.525 0.309,-2.195 1.092,-4.02c0.917,-2.134 2.088,-3.492 2.796,-4.359c1.8,-2.204 2.942,-4.187 5.225,-8.158c1.683,-2.925 3.317,-6.208 4.375,-10.279c0.858,-3.279 0.646,-4.4 -0,-4.804c-0.975,-0.613 -2.929,0.45 -3.5,0.762c-1.4,0.763 -2.221,1.763 -2.892,2.6c-1.716,2.146 -1.812,3.471 -2.712,3.525c-0.788,0.046 -1.8,-0.912 -1.767,-1.792c0.046,-1.216 2.096,-1.541 4.658,-3.52c1.675,-1.296 2.634,-2.571 3.284,-3.446c0.996,-1.334 2.579,-3.896 3.1,-7.842c3.021,-2.175 6.058,-5.096 5.625,-8.121c-0.304,-2.104 -2.025,-2.441 -2.413,-4.8c-0.396,-2.429 1.125,-3.929 4.421,-9.229c1.267,-2.042 2.808,-4.525 4.013,-7.012c2.933,-6.071 1.366,-7.034 3.612,-11.442c0.35,-0.679 4.925,-9.375 12.446,-10.338c1.629,-0.208 4.208,-0.154 6.829,0.371c0.613,0.121 2.371,0.5 4.217,1.271c5.837,2.438 5.4,5.821 9.841,7.633c4.53,1.846 7.48,-0.658 10.105,1.659c1.637,1.45 1.241,3.079 1.945,5.666c1.171,4.313 4.33,6.896 10.642,12.063c3.85,3.15 9.713,7.367 13.592,10.158c2.646,1.9 6.112,4.354 6.091,7.629c-0.008,1.338 -0.591,1.192 -0.937,3.2c-0.546,3.163 0.825,3.892 1.471,9.48c0.125,1.062 0.196,2.083 0.671,3.508c0.408,1.221 0.795,1.808 1.404,3.079c0.571,1.188 0.962,2.288 1.741,4.492c2.088,5.896 2.338,8.158 2.413,8.921c0.312,3.366 -0.379,3.866 -0.671,4.004c-0.746,0.35 -1.9,-0.263 -2.679,-0.679c-1.871,-0.996 -2.342,-2.163 -2.879,-2.03c-0.625,0.159 -0.55,1.917 -0.534,4.68m186.792,256.766c-22.533,-13.3 -42.779,14.275 -81.921,8.192c-69.037,-10.725 -118.775,-114.021 -100.358,-135.175c11.675,-13.4 43.021,15.033 73.733,-2.046c27.954,-15.542 33.242,-56.471 38.913,-100.354c6.691,-51.779 10.112,-78.267 -2.05,-108.546c-37.296,-92.879 -173.117,-101.821 -184.325,-102.408c-23.684,-1.234 -60.213,-2.629 -94.213,20.483c-4.462,3.038 -28.287,19.688 -43.008,51.2c-30.196,64.658 18.854,104.271 14.337,188.425c-4.341,80.904 -51.645,80.958 -67.587,184.325c-6.729,43.65 -18.821,122.063 26.625,157.7c44.858,35.175 129.896,16.233 141.317,-16.383c8.641,-24.667 -30.521,-40.934 -40.963,-96.259c-9.887,-52.4 11.179,-112.32 32.771,-114.691c24.717,-2.717 60.187,68.858 71.683,133.125c9.871,55.183 -3.916,71.55 12.288,92.162c35.391,45.021 160.729,42.759 206.854,-26.625c29.687,-44.654 25.575,-115.612 -4.096,-133.125" style="fill:#231f20;fill-rule:nonzero;"/><path d="M552.326,217.984c0.038,6.279 -0.295,7.741 -1.404,8.675c-0.837,0.704 -1.2,0.337 -2.279,1.233c-0.392,0.325 -1.108,1.008 -2.342,4.308c-0.825,2.2 -1.233,3.325 -1.004,4.309c0.3,1.304 1.196,2.004 1.942,2.766c3.437,3.534 4.446,9.138 4.217,12.438c-0.08,1.141 -0.338,2.5 -0,4.554c0.283,1.729 0.662,1.925 0.604,2.892c-0.117,1.933 -1.842,4.791 -4.754,4.92c-2.709,0.125 -5.159,-2.17 -5.088,-3.937c0.058,-1.479 1.863,-1.692 2.075,-3.325c0.183,-1.417 -1.192,-2.704 -3.95,-5.229c-2.283,-2.092 -4.1,-3.725 -5.087,-3.263c-1.067,0.496 -0.155,2.963 -1.409,3.571c-1.054,0.513 -2.221,-0.996 -3.546,-0.617c-1.32,0.375 -1.6,2.275 -2.279,4.863c-0.15,0.587 -1.058,3.158 -2.875,8.308c-2.066,5.854 -2.408,5.634 -2.612,7.575c-0.334,3.159 0.525,4.154 -0.467,6.463c-1.033,2.391 -2.292,2.1 -3.217,4.366c-1.179,2.913 0.671,3.942 -0.4,7.017c-0.941,2.704 -2.629,2.646 -2.945,4.983c-0.317,2.359 1.341,2.738 1.07,5.234c-0.275,2.575 -2.112,2.821 -2.075,5.296c0.03,1.8 1.017,2.225 0.671,3.875c-0.308,1.47 -1.166,1.508 -1.675,3.079c-0.641,1.975 0.467,2.683 0.067,4.429c-0.433,1.892 -2.408,3.983 -4.754,4.125c-2.938,0.175 -5.425,-2.775 -5.759,-5.233c-0.275,-2.055 0.93,-3.934 2.08,-5.725c1.62,-2.525 2.945,-3.096 2.745,-4.43c-0.212,-1.379 -1.858,-2.254 -3.283,-3.016c-3.092,-1.646 -4.479,-0.842 -6.025,-2.15c-1.842,-1.567 -1.746,-4.304 -1.687,-6.059c0.141,-4.1 2.254,-5.725 1.045,-7.575c-0.737,-1.129 -1.679,-0.758 -3.004,-2.283c-1.358,-1.554 -1.587,-3.329 -1.704,-4.329c-0.346,-3.004 0.946,-3.446 1.179,-6.608c0.284,-3.838 -1.316,-7.221 -2.225,-9.134c-1.016,-2.158 -1.471,-2.25 -2.079,-4.125c-0.996,-3.062 -0.542,-5.141 -1.521,-5.446c-0.775,-0.245 -1.804,0.821 -2.725,1.767c-0.887,0.921 -2.633,2.763 -3.362,5.888c-0.621,2.675 0.271,2.958 -0.396,5.812c-0.4,1.696 -1.021,4.333 -2.804,4.713c-1.288,0.279 -3.029,-0.65 -3.521,-1.913c-0.504,-1.275 0.554,-2.183 2.4,-5.962c1.925,-3.946 1.783,-5.03 1.679,-5.521c-0.346,-1.659 -1.579,-2.784 -2.479,-3.609c-1.238,-1.125 -2.433,-2.216 -4.004,-2.129c-1.954,0.1 -3.429,1.967 -4.004,3.384c-0.792,1.958 0.32,2.629 -0.4,4.633c-0.067,0.196 -1.18,3.142 -4.321,3.975c-0.375,0.104 -2.692,0.717 -4.488,-0.438c-3.058,-1.979 -1.625,-7.212 -1.516,-7.579c0.65,-2.275 1.525,-2.054 2.8,-5.008c1.72,-3.992 1.233,-6.958 1.12,-7.583c-0.108,-0.588 -0.745,-4.084 -2.325,-4.267c-1.55,-0.179 -3.141,2.958 -3.358,3.383c-1.058,2.079 -0.342,2.471 -1.362,4.713c-1.03,2.258 -2.084,2.575 -2.484,4.562c-0.216,1.084 -0.071,1.829 0.084,2.946c0.712,5.192 1.07,7.788 -0.242,9.496c-1.208,1.571 -3.833,2.496 -5.683,1.767c-2.2,-0.863 -3.067,-3.959 -2.405,-6.113c0.746,-2.412 3.125,-2.687 3.605,-5.371c0.237,-1.337 -0.338,-1.35 -0.321,-3.166c0.029,-2.984 1.591,-3.663 2.162,-6.842c0.454,-2.567 0.025,-5.413 -0.825,-5.571c-0.654,-0.125 -1.55,1.333 -2.187,2.367c-1.175,1.921 -1.046,2.833 -2.313,4.016c-0.266,0.25 -1.412,1.321 -2.154,1.013c-0.617,-0.246 -0.654,-1.304 -0.658,-1.546c-0.071,-2.042 1.846,-3.279 3.729,-5.404c3.387,-3.833 4.067,-7.629 4.612,-10.692c0.305,-1.704 0.238,-2.571 -0.191,-2.762c-0.479,-0.213 -1.3,0.475 -2.234,1.346c-2.733,2.554 -4.704,5.091 -5.733,6.404c-2.658,3.391 -3.571,4.375 -4.312,4.175c-0.475,-0.125 -0.796,-0.721 -0.809,-1.2c-0.029,-1.038 1.338,-1.846 1.804,-2.138c3.28,-2.046 7.471,-6.891 8.75,-11.171c0.455,-1.525 0.309,-2.195 1.092,-4.02c0.917,-2.134 2.088,-3.492 2.796,-4.359c1.8,-2.204 2.942,-4.187 5.225,-8.158c1.683,-2.925 3.317,-6.208 4.375,-10.279c0.858,-3.279 0.646,-4.4 -0,-4.804c-0.975,-0.613 -2.929,0.45 -3.5,0.762c-1.4,0.763 -2.221,1.763 -2.892,2.6c-1.716,2.146 -1.812,3.471 -2.712,3.525c-0.788,0.046 -1.8,-0.912 -1.767,-1.792c0.046,-1.216 2.096,-1.541 4.658,-3.52c1.675,-1.296 2.634,-2.571 3.284,-3.446c0.996,-1.334 2.579,-3.896 3.1,-7.842c3.021,-2.175 6.058,-5.096 5.625,-8.121c-0.304,-2.104 -2.025,-2.441 -2.413,-4.8c-0.396,-2.429 1.125,-3.929 4.421,-9.229c1.267,-2.042 2.808,-4.525 4.013,-7.012c2.933,-6.071 1.366,-7.034 3.612,-11.442c0.35,-0.679 4.925,-9.375 12.446,-10.338c1.629,-0.208 4.208,-0.154 6.829,0.371c0.613,0.121 2.371,0.5 4.217,1.271c5.837,2.438 5.4,5.821 9.841,7.633c4.53,1.846 7.48,-0.658 10.105,1.659c1.637,1.45 1.241,3.079 1.945,5.666c1.171,4.313 4.33,6.896 10.642,12.063c3.85,3.15 9.713,7.367 13.592,10.158c2.646,1.9 6.112,4.354 6.091,7.629c-0.008,1.338 -0.591,1.192 -0.937,3.2c-0.546,3.163 0.825,3.892 1.471,9.48c0.125,1.062 0.196,2.083 0.671,3.508c0.408,1.221 0.795,1.808 1.404,3.079c0.571,1.188 0.962,2.288 1.741,4.492c2.088,5.896 2.338,8.158 2.413,8.921c0.312,3.366 -0.379,3.866 -0.671,4.004c-0.746,0.35 -1.9,-0.263 -2.679,-0.679c-1.871,-0.996 -2.342,-2.163 -2.879,-2.03c-0.625,0.159 -0.55,1.917 -0.534,4.68Zm186.792,256.766c-22.533,-13.3 -42.779,14.275 -81.921,8.192c-69.037,-10.725 -118.775,-114.021 -100.358,-135.175c11.675,-13.4 43.021,15.033 73.733,-2.046c27.954,-15.542 33.242,-56.471 38.913,-100.354c6.691,-51.779 10.112,-78.267 -2.05,-108.546c-37.296,-92.879 -173.117,-101.821 -184.325,-102.408c-23.684,-1.234 -60.213,-2.629 -94.213,20.483c-4.462,3.038 -28.287,19.688 -43.008,51.2c-30.196,64.658 18.854,104.271 14.337,188.425c-4.341,80.904 -51.645,80.958 -67.587,184.325c-6.729,43.65 -18.821,122.063 26.625,157.7c44.858,35.175 129.896,16.233 141.317,-16.383c8.641,-24.667 -30.521,-40.934 -40.963,-96.259c-9.887,-52.4 11.179,-112.32 32.771,-114.691c24.717,-2.717 60.187,68.858 71.683,133.125c9.871,55.183 -3.916,71.55 12.288,92.162c35.391,45.021 160.729,42.759 206.854,-26.625c29.687,-44.654 25.575,-115.612 -4.096,-133.125Z" style="fill:none;fill-rule:nonzero;stroke:#231f20;stroke-width:4.17px;"/><path d="M2891.91,175.648c-0.592,-1.421 -4.604,0.188 -8.675,-2.308c-0.696,-0.425 -1.388,-0.975 -2.021,-1.6c-4.904,5.517 -9.187,11.871 -12.325,19.233c-0.037,0.075 -0.054,0.15 -0.087,0.229c2.854,-1.262 5.637,-2.704 8.712,-4.329c6.575,-3.475 15.308,-9.046 14.396,-11.225" style="fill:#231f20;fill-rule:nonzero;"/><path d="M3071.39,347.513c-35.679,-18.646 -65.733,15.625 -97.87,-3.263c-29.184,-17.145 -42.496,-67.787 -26.105,-97.87c22.792,-41.83 93.421,-26.367 97.875,-48.942c2.455,-12.438 -15.833,-33.225 -44.012,-48.746c-1.067,0.929 -2.896,1.371 -4.213,1.671c-4.083,0.929 -6.879,0.275 -11.52,-0.338c-8.08,-1.079 -12.18,-1.575 -15.134,0.296c-2.062,1.309 -3.933,3.763 -3.596,6.029c0.388,2.605 3.563,3.984 6.367,5.205c2.983,1.3 4.313,1.204 10.517,2.504c5.487,1.154 8.237,1.729 10.425,2.825c4.429,2.216 6.871,5.325 7.833,6.683c1.492,2.121 4.058,5.758 3.238,10.383c-0.192,1.096 -0.688,3.9 -3.28,5.959c-2.354,1.875 -5.062,2.029 -6.087,2.075c-4.063,0.179 -6.883,-1.867 -7.742,-2.513c-2.579,-1.937 -3.146,-3.971 -4.929,-7.616c-2.358,-4.83 -5.442,-10.971 -11.446,-15.038c-4.133,-2.796 -6.854,-2.721 -7.929,-2.617c-0.517,0.05 -4.687,0.45 -6.054,2.967c-1.9,3.492 4.137,6.392 4.079,13.496c-0.033,4.287 -2.254,5.417 -1.004,8.158c1.062,2.321 2.979,2.225 6.862,5.996c2.567,2.488 3.913,3.796 3.838,5.608c-0.142,3.475 -5.45,7.08 -8.304,6.15c-0.917,-0.295 -1.5,-1.037 -3.65,-8.491c-1.988,-6.921 -1.829,-7.484 -2.959,-9.096c-2.466,-3.513 -4.433,-2.554 -6.741,-6.171c-2.046,-3.221 -1.109,-4.937 -3.492,-7.033c-0.496,-0.438 -2.696,-2.259 -5.867,-2.167c-3.77,0.108 -6.325,2.846 -7.054,3.633c-2.246,2.409 -1.362,3.525 -3.5,5.705c-2.875,2.925 -6.891,3.379 -7.591,3.45c-3.105,0.304 -3.713,-0.867 -6.959,-1.18c-6,-0.583 -13.008,2.534 -13.479,5.675c-0.196,1.325 0.917,1.742 2.363,4.088c0.85,1.379 3.883,6.792 2.02,12.292c-2.041,6.033 -8.75,8.537 -9.525,8.816c-4.912,1.754 -12.091,1.75 -14.233,-1.546c-1.254,-1.925 0.117,-3.566 1.721,-10.112c1.942,-7.921 3.271,-13.35 0.383,-16.267c-2.441,-2.466 -7.279,-2.5 -10.516,-1.475c-3.988,1.267 -4.167,3.721 -9.905,8.317c-3.566,2.858 -8.912,7.146 -12.487,5.717c-2.413,-0.963 -3.342,-4.263 -3.088,-6.671c0.484,-4.534 5.363,-7.475 7.28,-8.625c6.216,-3.742 10.879,-2.496 12.77,-5.925c0.938,-1.704 0.892,-4.029 -0.312,-5.175c-1.758,-1.684 -5.638,-0.529 -8.892,0.437c-3.308,0.979 -5.529,2.154 -9.087,4.075c-7.092,3.825 -10.638,5.738 -11.679,6.438c-6.188,4.137 -5.846,5.6 -10.9,9.266c-2.646,1.917 -5.217,3.23 -8.53,4.567c-8.295,55.85 71.259,102.296 79.192,197.333c9.9,118.605 -102.179,189.259 -68.512,238.159c17.658,25.654 61.083,24.504 123.975,22.837c73.087,-1.933 147.379,-22.216 146.808,-39.15c-0.613,-18.133 -86.396,-10.816 -107.663,-58.721c-10.35,-23.32 -3.416,-55.229 13.05,-75.037c31.421,-37.796 83.955,-15.208 101.138,-45.675c14.492,-25.7 -4.246,-74.813 -35.888,-91.35" style="fill:#231f20;fill-rule:nonzero;"/><path d="M2976.78,145.041c3.65,0.808 5.525,-0.988 12.084,-2.334c0.121,-0.02 0.221,-0.037 0.337,-0.062c-3.887,-1.754 -7.916,-3.392 -12.054,-4.892c-2.933,1.446 -5.05,2.971 -4.921,4.384c0.171,1.891 4.292,2.841 4.554,2.904" style="fill:#231f20;fill-rule:nonzero;"/><path d="M3340.44,298.41c-7.966,-48.925 -37.679,-94.608 -71.996,-127.104c-1.204,0.442 -1.829,0.975 -2.125,1.321c-2.012,2.346 -0.758,5.967 -0.562,6.5c0.737,2.029 2.108,3.308 3.237,4.333c3.2,2.913 5.105,2.384 6.271,4.471c1.209,2.163 0.613,5.296 -1.083,6.513c-1.171,0.837 -1.908,0.079 -3.271,0.962c-1.687,1.096 -1.012,2.579 -2.967,4.95c-1.27,1.533 -1.85,1.263 -2.333,2.338c-0.787,1.762 0.383,3.291 1.175,6.07c0.633,2.205 1.75,6.1 0.017,8.688c-1.679,2.508 -5.692,3.267 -8.542,2.958c-3.525,-0.383 -5.779,-2.462 -6.787,-1.566c-0.455,0.4 -0.284,1.079 0.004,2.895c0.65,4.1 0.971,6.15 0.55,7.48c-0.679,2.137 -2.913,4.079 -5.217,4.191c-2.583,0.125 -3.837,-2.116 -5.229,-1.596c-1.021,0.38 -1.475,2.013 -1.188,7.909c0.45,9.279 1.846,10.708 0.505,13.971c-1.263,3.079 -2.971,2.929 -3.813,6.262c-0.45,1.775 -0.221,2.821 0.463,7.679c1.341,9.563 0.954,9.021 1.504,10.554c1.187,3.33 2.191,3.63 4.429,9.205c1.521,3.791 1.621,5.062 0.962,5.975c-1.05,1.445 -3.658,1.479 -5.35,1c-3.033,-0.859 -4.345,-3.696 -4.583,-4.205c-1.025,-2.212 -0.221,-3.17 -0.475,-6.483c-0.304,-3.962 -1.796,-7 -2.742,-8.933c-1.67,-3.404 -2.508,-3.4 -4.5,-7.304c-0.412,-0.805 -1.662,-3.325 -2.687,-6.738c-1.375,-4.6 -1.317,-7.421 -3.663,-11.517c-0.75,-1.316 -1.362,-2.083 -2.137,-2.154c-2.054,-0.187 -4.354,4.579 -4.354,4.579c-0,0 -0.329,3.613 -0.959,6.805c-0.737,3.708 -1.104,5.562 -2.52,6.837c-1.438,1.296 -3.98,2.313 -5.53,1.404c-1.208,-0.704 -1.475,-2.387 -1.962,-5.45c-0.496,-3.108 -0.175,-4.337 -0.979,-4.775c-1.329,-0.729 -3.213,2.071 -5.004,1.392c-1.634,-0.617 -1.971,-3.667 -2.18,-5.55c-0.241,-2.142 0.096,-2.754 0.167,-6.192c0.079,-3.766 0.096,-5.662 -0.871,-6.175c-1.066,-0.571 -2.079,1.034 -5.4,1.7c-1.333,0.271 -4.1,0.825 -5.458,-0.491c-0.454,-0.442 -0.854,-1.2 -0.492,-5.288c0.304,-3.462 0.667,-3.758 0.817,-5.904c0.167,-2.388 0.475,-6.917 -1.971,-8.35c-1.625,-0.954 -3.708,-0.092 -3.858,-0.025c-2.613,1.121 -3.154,4.208 -4.046,7.367c-1.842,6.52 -2.721,4.625 -5.15,12.179c-2.396,7.437 -1.954,10.554 -5.438,13.983c-0.608,0.6 -3.025,2.979 -4.625,2.283c-1.75,-0.754 -1.504,-4.725 -1.445,-5.462c0.3,-3.85 2.304,-6.508 3.183,-7.75c4.237,-5.979 1.621,-6.175 7.617,-18.317c2.929,-5.925 5.954,-10.746 4.541,-11.971c-0.941,-0.816 -3.096,0.634 -4.2,-0.42c-1.058,-1.005 -0.187,-3.375 0.371,-4.896c1.096,-3.004 2.271,-3.892 4.258,-7.271c0.717,-1.217 3.363,-5.717 2.559,-6.342c-0.475,-0.371 -1.854,0.863 -4.896,2.888c-4.842,3.229 -4.808,2.412 -8.7,5.062c-4.479,3.05 -5.917,5.088 -8.517,4.654c-1.296,-0.212 -1.625,-0.829 -2.766,-0.745c-2.167,0.162 -3.18,2.533 -4.842,5.083c-0,-0 -3.2,4.925 -8.529,8.754c-0.004,0 -0.017,0.008 -0.021,0.013c-1.542,34.85 -4.367,81.533 -13.283,144.079c-19.825,139.075 -46.834,195.529 -8.842,247.558c20.612,28.225 58.558,52.688 88.412,44.208c30.538,-8.679 39.475,-48.087 61.892,-119.362c59.358,-188.704 83.413,-187.992 75.154,-238.717" style="fill:#231f20;fill-rule:nonzero;"/><path d="M3181.64,386.779c-17.667,21.129 -12.475,49.883 -9.009,69.075c3.534,19.558 14.417,54.408 27.03,54.058c11.8,-0.329 11.35,-31.075 39.041,-90.096c14.463,-30.829 23.009,-40.395 18.021,-48.054c-8.908,-13.687 -53.862,-10.366 -75.083,15.017" style="fill:#fff;fill-rule:nonzero;"/><path d="M2060.71,206.468c-2.091,-12.391 -20.454,-114.358 -79.875,-129.029c-35.521,-8.767 -46.454,23.358 -106.496,38.913c-11.875,3.075 -23.879,5.008 -35.841,6.075c0.833,2.129 -0.05,3.45 1.312,4.7c2.571,2.35 7.225,-0.942 9.454,1.387c1.505,1.571 0.225,3.95 1.984,5.279c1.429,1.075 2.671,-0.187 4.191,0.888c1.263,0.891 1.555,2.696 2.15,6.296c0.267,1.633 0.4,2.47 0.25,3.408c-0.262,1.629 -0.975,2.283 -2.204,4.383c-1.641,2.804 -2.466,4.209 -2.304,5.334c0.433,3.004 5.304,3.991 5.05,5.716c-0.208,1.454 -3.75,1.321 -4.071,3.029c-0.3,1.613 2.667,2.663 2.442,4.575c-0.192,1.642 -2.492,1.755 -2.913,3.909c-0.216,1.121 0.355,1.341 0.38,2.887c0.045,2.559 -1.496,3.179 -1.496,4.863c0.008,2.754 4.146,5.071 6.533,6.408c3.446,1.929 5.413,1.938 7.313,4.4c0.316,0.408 1.691,2.196 1.158,3.104c-0.575,0.959 -3.083,0.563 -4.808,-0.091c-3.146,-1.196 -3.521,-3.184 -6.825,-5.792c-2.213,-1.75 -4.85,-3.842 -7.575,-3.367c-3.525,0.613 -6.225,5.371 -5.955,9.45c0.192,2.975 1.859,4.05 5.205,8.959c5.241,7.695 3.4,8.37 7.387,13.454c5.263,6.712 10.254,7.808 10.038,11.691c-0.125,2.23 -1.925,4.492 -3.463,4.45c-1.342,-0.029 -2.242,-1.804 -3.604,-4.337c-7.292,-13.55 -9.363,-14.513 -10.35,-14.838c-2.367,-0.775 -4.079,0.275 -6,-1.391c-1.092,-0.954 -0.921,-1.625 -2.217,-3.817c-1.283,-2.167 -2.812,-4.758 -5.375,-5.525c-2.196,-0.667 -5.204,-0.008 -5.937,1.675c-0.892,2.038 2.15,4.225 1.208,6.171c-0.804,1.683 -3.325,0.592 -5.037,2.487c-2.113,2.338 -0.025,5.921 -1.988,7.367c-1.558,1.15 -3.6,-0.596 -5,0.688c-1.196,1.095 -0.087,2.733 -1.008,4.579c-1.396,2.808 -5.988,3.158 -8.425,3.346c-5.717,0.441 -7.692,-1.575 -9.521,-0.013c-1.871,1.596 -1.892,5.488 -0.921,8.079c0.958,2.563 2.608,3.104 2.571,5.163c-0.038,1.708 -1.221,3.658 -2.821,4.075c-2.092,0.55 -3.217,-1.963 -5.958,-2.079c-2.621,-0.109 -4.971,2.041 -6.046,3.733c-2.179,3.45 -0.667,7.542 0.937,13.875c1.334,5.279 2.013,9.667 3.375,18.45c2.384,15.371 -0.204,13.637 2.08,22.533c0.65,2.529 2.016,7.175 0.487,12.363c-0.192,0.646 -1.421,4.675 -2.946,4.596c-1.85,-0.092 -3.041,-6.146 -3.212,-7.009c-1.588,-8.046 1.016,-11.512 1.258,-18.791c0.196,-6.1 -1.583,-5.175 -4.3,-19.038c-2.117,-10.787 -0.942,-10.862 -2.987,-19.104c-2.355,-9.5 -4.017,-16.221 -9.346,-19.579c-1.829,-1.15 -4.188,-1.967 -8.275,-4.917c-2.242,-1.621 -2.954,-2.4 -4.992,-3.533c-2.821,-1.575 -5.562,-3.1 -7.929,-2.492c-2.213,0.571 -2.763,2.667 -6.508,11.104c-2.313,5.204 -4.109,8.921 -6.967,12.925c-3.958,5.538 -5.438,5.3 -5.85,5.175c-1.383,-0.416 -1.958,-2.95 -2.025,-4.591c-0.142,-3.575 1.992,-6.263 2.825,-7.413c6.021,-8.283 4.983,-19.767 4.354,-26.712c-0.729,-8.075 -3.004,-9.338 -3.654,-9.63c-1.879,-0.85 -4.071,0.125 -5.746,0.896c-4.121,1.9 -6.354,4.896 -7.921,6.821c-6.796,8.367 -8.662,5.954 -14.416,13.483c-4.667,6.105 -5.275,10.096 -8.346,10.18c-2.479,0.062 -5.242,-2.446 -5.313,-4.68c-0.075,-2.3 2.746,-3.583 5.463,-5.841c4.746,-3.934 4.129,-6.642 8.746,-13.954c7.412,-11.746 13.8,-12.359 14.045,-19.7c0.096,-2.771 -0.683,-6.534 -2.82,-7.459c-1.817,-0.783 -4.4,1.088 -9.496,4.854c-6.984,5.167 -9.567,7.338 -9.567,7.338c-2.821,2.371 -4.092,3.621 -5.492,3.192c-1.67,-0.513 -2.925,-3.238 -2.504,-5.421c0.554,-2.879 3.704,-3.275 9.113,-6.629c4.837,-3 10.387,-6.438 11.579,-12.055c0.683,-3.233 -0.158,-6.787 -0.529,-8.341c-0.934,-3.946 -2.075,-4.346 -2.275,-6.892c-0.429,-5.529 4.516,-9.458 3.8,-10.192c-0.979,-1.004 -8.946,7.596 -12.342,5.567c-1.492,-0.892 -2.046,-3.8 -1.142,-5.717c1.6,-3.42 6.8,-1.533 10.463,-5.416c2.217,-2.346 3.592,-6.513 2.15,-8.575c-2.208,-3.15 -8.854,1.75 -15.933,-1.388c-6.28,-2.779 -10.984,-11.029 -9.671,-17.008c1.112,-5.054 5.946,-5.829 5.671,-9.946c-0.288,-4.229 -5.463,-4.746 -7.142,-10.05c-0.25,-0.804 -0.354,-1.587 -0.388,-2.379c-15.525,-6.05 -25.795,-11.083 -28.47,-12.425c-37.138,-18.663 -62.988,-40.538 -98.309,-32.767c-30.558,6.717 -48.712,31.338 -51.2,34.813c-13.154,18.371 -16.525,38.479 -16.383,73.729c0.054,13.55 1.242,149.771 32.767,153.608c11.612,1.413 13.704,-16.787 47.108,-38.912c14.858,-9.846 35.283,-23.379 61.442,-22.534c22.141,0.721 41.641,11.521 53.245,22.534c37.825,35.875 32.28,112.333 8.196,165.891c-38.841,86.38 -117.758,95.109 -112.646,137.221c5.242,43.15 91.85,64.904 126.984,73.729c38.046,9.559 110.279,27.709 135.171,-4.091c19.433,-24.829 -8.18,-56.867 -24.575,-141.317c-14.555,-74.937 -21.509,-197.492 24.575,-219.146c21.754,-10.221 52.991,3.134 67.587,12.288c18.346,11.512 19.563,22.141 45.054,49.154c27.734,29.392 41.604,44.087 55.3,43.008c33.613,-2.641 67.859,-97.725 53.25,-184.325" style="fill:#231f20;fill-rule:nonzero;"/><path d="M2060.71,206.468c-2.091,-12.391 -20.454,-114.358 -79.875,-129.029c-35.521,-8.767 -46.454,23.358 -106.496,38.913c-11.875,3.075 -23.879,5.008 -35.841,6.075c0.833,2.129 -0.05,3.45 1.312,4.7c2.571,2.35 7.225,-0.942 9.454,1.387c1.505,1.571 0.225,3.95 1.984,5.279c1.429,1.075 2.671,-0.187 4.191,0.888c1.263,0.891 1.555,2.696 2.15,6.296c0.267,1.633 0.4,2.47 0.25,3.408c-0.262,1.629 -0.975,2.283 -2.204,4.383c-1.641,2.804 -2.466,4.209 -2.304,5.334c0.433,3.004 5.304,3.991 5.05,5.716c-0.208,1.454 -3.75,1.321 -4.071,3.029c-0.3,1.613 2.667,2.663 2.442,4.575c-0.192,1.642 -2.492,1.755 -2.913,3.909c-0.216,1.121 0.355,1.341 0.38,2.887c0.045,2.559 -1.496,3.179 -1.496,4.863c0.008,2.754 4.146,5.071 6.533,6.408c3.446,1.929 5.413,1.938 7.313,4.4c0.316,0.408 1.691,2.196 1.158,3.104c-0.575,0.959 -3.083,0.563 -4.808,-0.091c-3.146,-1.196 -3.521,-3.184 -6.825,-5.792c-2.213,-1.75 -4.85,-3.842 -7.575,-3.367c-3.525,0.613 -6.225,5.371 -5.955,9.45c0.192,2.975 1.859,4.05 5.205,8.959c5.241,7.695 3.4,8.37 7.387,13.454c5.263,6.712 10.254,7.808 10.038,11.691c-0.125,2.23 -1.925,4.492 -3.463,4.45c-1.342,-0.029 -2.242,-1.804 -3.604,-4.337c-7.292,-13.55 -9.363,-14.513 -10.35,-14.838c-2.367,-0.775 -4.079,0.275 -6,-1.391c-1.092,-0.954 -0.921,-1.625 -2.217,-3.817c-1.283,-2.167 -2.812,-4.758 -5.375,-5.525c-2.196,-0.667 -5.204,-0.008 -5.937,1.675c-0.892,2.038 2.15,4.225 1.208,6.171c-0.804,1.683 -3.325,0.592 -5.037,2.487c-2.113,2.338 -0.025,5.921 -1.988,7.367c-1.558,1.15 -3.6,-0.596 -5,0.688c-1.196,1.095 -0.087,2.733 -1.008,4.579c-1.396,2.808 -5.988,3.158 -8.425,3.346c-5.717,0.441 -7.692,-1.575 -9.521,-0.013c-1.871,1.596 -1.892,5.488 -0.921,8.079c0.958,2.563 2.608,3.104 2.571,5.163c-0.038,1.708 -1.221,3.658 -2.821,4.075c-2.092,0.55 -3.217,-1.963 -5.958,-2.079c-2.621,-0.109 -4.971,2.041 -6.046,3.733c-2.179,3.45 -0.667,7.542 0.937,13.875c1.334,5.279 2.013,9.667 3.375,18.45c2.384,15.371 -0.204,13.637 2.08,22.533c0.65,2.529 2.016,7.175 0.487,12.363c-0.192,0.646 -1.421,4.675 -2.946,4.596c-1.85,-0.092 -3.041,-6.146 -3.212,-7.009c-1.588,-8.046 1.016,-11.512 1.258,-18.791c0.196,-6.1 -1.583,-5.175 -4.3,-19.038c-2.117,-10.787 -0.942,-10.862 -2.987,-19.104c-2.355,-9.5 -4.017,-16.221 -9.346,-19.579c-1.829,-1.15 -4.188,-1.967 -8.275,-4.917c-2.242,-1.621 -2.954,-2.4 -4.992,-3.533c-2.821,-1.575 -5.562,-3.1 -7.929,-2.492c-2.213,0.571 -2.763,2.667 -6.508,11.104c-2.313,5.204 -4.109,8.921 -6.967,12.925c-3.958,5.538 -5.438,5.3 -5.85,5.175c-1.383,-0.416 -1.958,-2.95 -2.025,-4.591c-0.142,-3.575 1.992,-6.263 2.825,-7.413c6.021,-8.283 4.983,-19.767 4.354,-26.712c-0.729,-8.075 -3.004,-9.338 -3.654,-9.63c-1.879,-0.85 -4.071,0.125 -5.746,0.896c-4.121,1.9 -6.354,4.896 -7.921,6.821c-6.796,8.367 -8.662,5.954 -14.416,13.483c-4.667,6.105 -5.275,10.096 -8.346,10.18c-2.479,0.062 -5.242,-2.446 -5.313,-4.68c-0.075,-2.3 2.746,-3.583 5.463,-5.841c4.746,-3.934 4.129,-6.642 8.746,-13.954c7.412,-11.746 13.8,-12.359 14.045,-19.7c0.096,-2.771 -0.683,-6.534 -2.82,-7.459c-1.817,-0.783 -4.4,1.088 -9.496,4.854c-6.984,5.167 -9.567,7.338 -9.567,7.338c-2.821,2.371 -4.092,3.621 -5.492,3.192c-1.67,-0.513 -2.925,-3.238 -2.504,-5.421c0.554,-2.879 3.704,-3.275 9.113,-6.629c4.837,-3 10.387,-6.438 11.579,-12.055c0.683,-3.233 -0.158,-6.787 -0.529,-8.341c-0.934,-3.946 -2.075,-4.346 -2.275,-6.892c-0.429,-5.529 4.516,-9.458 3.8,-10.192c-0.979,-1.004 -8.946,7.596 -12.342,5.567c-1.492,-0.892 -2.046,-3.8 -1.142,-5.717c1.6,-3.42 6.8,-1.533 10.463,-5.416c2.217,-2.346 3.592,-6.513 2.15,-8.575c-2.208,-3.15 -8.854,1.75 -15.933,-1.388c-6.28,-2.779 -10.984,-11.029 -9.671,-17.008c1.112,-5.054 5.946,-5.829 5.671,-9.946c-0.288,-4.229 -5.463,-4.746 -7.142,-10.05c-0.25,-0.804 -0.354,-1.587 -0.388,-2.379c-15.525,-6.05 -25.795,-11.083 -28.47,-12.425c-37.138,-18.663 -62.988,-40.538 -98.309,-32.767c-30.558,6.717 -48.712,31.338 -51.2,34.813c-13.154,18.371 -16.525,38.479 -16.383,73.729c0.054,13.55 1.242,149.771 32.767,153.608c11.612,1.413 13.704,-16.787 47.108,-38.912c14.858,-9.846 35.283,-23.379 61.442,-22.534c22.141,0.721 41.641,11.521 53.245,22.534c37.825,35.875 32.28,112.333 8.196,165.891c-38.841,86.38 -117.758,95.109 -112.646,137.221c5.242,43.15 91.85,64.904 126.984,73.729c38.046,9.559 110.279,27.709 135.171,-4.091c19.433,-24.829 -8.18,-56.867 -24.575,-141.317c-14.555,-74.937 -21.509,-197.492 24.575,-219.146c21.754,-10.221 52.991,3.134 67.587,12.288c18.346,11.512 19.563,22.141 45.054,49.154c27.734,29.392 41.604,44.087 55.3,43.008c33.613,-2.641 67.859,-97.725 53.25,-184.325Z" style="fill:none;fill-rule:nonzero;stroke:#231f20;stroke-width:4.17px;"/><path d="M2405.11,136.434c-1.105,2.208 0.97,5.67 1.195,6.041c1.063,1.775 2.071,2.138 1.992,3.225c-0.112,1.496 -2.075,1.479 -2.787,3.221c-1.046,2.55 2.191,4.975 1.091,7.05c-0.821,1.55 -3.146,1.188 -3.383,2.517c-0.196,1.083 1.292,1.629 1.492,3.525c0.033,0.308 0.17,1.604 -0.5,2.416c-0.625,0.767 -1.946,1.08 -8.963,-0.3c-3.825,-0.75 -4.658,-1.083 -6.279,-0.704c-0.754,0.179 -3.288,0.775 -4.383,2.817c-0.955,1.792 0.12,2.971 -0.896,5.342c-0.667,1.562 -1.288,1.416 -2.192,2.92c-1.742,2.9 -1.887,7.571 0.2,9.363c1.313,1.129 2.692,0.425 3.588,1.712c0.77,1.113 0.758,3.092 -0.2,4.134c-1.884,2.041 -6.205,-0.875 -7.871,1.004c-0.325,0.371 -0.488,0.854 0.2,5.742c0.825,5.837 1.246,6.479 1.696,6.95c1.891,1.983 4.445,1.045 4.979,2.516c0.654,1.813 -3.088,3.621 -2.592,6.446c0.288,1.642 1.75,2.15 1.496,3.525c-0.208,1.138 -1.483,2.242 -2.292,2.013c-1.371,-0.388 -0.141,-4.234 -2.691,-7.05c-1.009,-1.113 -1.563,-0.913 -2.188,-2.013c-0.979,-1.717 0.033,-2.787 -0.304,-5.437c-0.358,-2.867 -1.988,-5.092 -2.688,-5.946c-1.566,-1.904 -2.604,-1.888 -2.987,-3.321c-0.508,-1.896 1.146,-2.538 0.896,-4.533c-0.271,-2.188 -2.354,-2.121 -5.179,-6.142c-1.113,-1.583 -1.163,-2.121 -2.092,-2.721c-1.313,-0.842 -2.429,-0.562 -5.379,-0.4c-5.992,0.325 -7.4,-0.487 -8.867,0.904c-1.162,1.1 -1.162,2.438 -2.096,2.517c-1.162,0.104 -1.421,-1.975 -3.087,-2.417c-1.679,-0.441 -2.184,1.471 -5.479,2.117c-1.696,0.329 -2.742,0.054 -3.388,0.904c-0.625,0.821 -0.046,1.6 -0.6,2.217c-1.042,1.166 -3.758,-0.867 -5.179,0.2c-1.513,1.141 -0.363,4.921 -0.896,5.037c-0.512,0.113 -0.904,-3.529 -3.287,-4.533c-1.192,-0.5 -2.142,-0.029 -2.788,-0.804c-0.746,-0.9 0.158,-1.979 -0.396,-2.721c-1.15,-1.508 -5.829,1.821 -8.475,-0.1c-0.391,-0.288 -0.891,-1.167 -1.891,-2.921c-0.58,-1.029 -1.246,-2.192 -1.788,-3.725c-1.017,-2.837 -0.362,-3.35 -1.1,-4.029c-1.621,-1.492 -4.487,1.254 -7.767,-0.2c-1.925,-0.854 -1.85,-2.2 -3.191,-2.217c-2.054,-0.029 -2.671,3.109 -6.075,4.129c-0.671,0.2 -2.05,0.613 -2.592,0c-0.833,-0.945 1.413,-3.07 2.292,-7.354c0.246,-1.2 0.766,-3.741 0.1,-6.746c-0.538,-2.412 -1.392,-3.087 -1.196,-5.037c0.208,-2.1 1.3,-2.313 1.296,-4.029c-0.009,-2.742 -2.809,-4.804 -3.388,-5.234c-1.537,-1.133 -3.2,-1.625 -5.879,-2.416c-2.092,-0.621 -3.383,-0.804 -3.387,-1.209c-0.005,-0.45 1.554,-0.462 3.587,-1.412c2.838,-1.325 4.313,-3.404 5.179,-4.633c0.917,-1.292 1.671,-2.363 1.3,-3.121c-0.521,-1.042 -2.487,-0.184 -3.887,-1.509c-1.117,-1.062 -1.421,-3.083 -0.767,-4.395c0.563,-1.134 1.417,-0.892 1.958,-1.95c0.959,-1.88 -0.995,-4.021 -0.195,-4.838c0.704,-0.712 2.262,0.896 4.383,0.204c0.717,-0.237 1.375,-0.829 2.687,-2.016c1.238,-1.113 1.859,-1.671 2.292,-2.317c1.654,-2.433 0.021,-4.158 1.396,-7.654c0.208,-0.534 0.842,-2.096 2.292,-3.521c1.854,-1.833 2.945,-1.367 3.583,-2.621c1.104,-2.162 -1.696,-4.429 -0.496,-6.95c0.029,-0.058 0.7,-1.417 2.092,-1.912c1.925,-0.684 3.241,0.979 4.283,0.3c1.379,-0.896 -0.225,-4.255 1.496,-5.738c0.792,-0.687 1.362,-0.171 2.292,-0.704c2.804,-1.617 3.166,-9.504 -0.4,-13.6c-1.063,-1.221 -1.642,-1.142 -2.188,-2.317c-1.342,-2.85 1.313,-4.954 0.196,-7.854c-0.896,-2.329 -3.229,-2.583 -3.188,-4.429c0.03,-1.196 1.013,-1.654 1.792,-2.721c3.238,-4.429 -2.846,-11.517 0.3,-17.325c0.146,-0.262 1.154,-2.087 1.892,-1.908c0.612,0.141 0.775,1.596 0.9,3.521c0.312,5.062 0.071,9.491 -0,10.779c-0.296,5.083 -0.338,5.658 -0,6.846c0.55,1.945 1.258,2.475 1.891,5.037c0.192,0.779 0.305,1.463 0.596,4.833c0.475,5.484 0.292,5.03 0.496,6.242c0.504,2.883 1.05,6.05 3.292,7.354c1.075,0.629 1.262,0.079 4.979,0.804c2.937,0.575 3.008,0.955 4.387,0.909c1.975,-0.067 3.463,-0.904 5.075,-1.813c1.592,-0.896 2.671,-1.5 3.688,-2.721c1.392,-1.658 2.717,-4.508 3.392,-7.25c0.175,-0.72 0.387,-1.783 1.091,-2.012c0.613,-0.204 1.025,0.408 2.292,0.704c1.471,0.342 1.883,-0.258 2.392,0.1c1.308,0.917 -1.538,4.771 0.1,8.058c0.5,0.996 0.9,0.917 2.191,3.021c1.138,1.846 1.034,2.25 1.692,2.721c1.537,1.092 4.537,0.658 5.879,-1.008c1.221,-1.521 0.413,-3.25 1.496,-3.829c1.071,-0.567 2.058,1.016 4.283,0.908c2.034,-0.104 2.746,-1.504 3.488,-1.108c1.508,0.808 -1.459,6.72 0.696,8.662c1.495,1.346 4.104,-0.458 5.779,1.308c0.983,1.038 0.741,2.35 1.891,2.817c0.988,0.404 1.767,-0.317 2.492,0.204c0.75,0.542 0.242,1.554 0.7,2.213c1.45,2.108 10.838,-2.088 17.029,-1.104c0.617,0.095 1.713,0.325 2.292,1.208c0.792,1.187 0.462,3.275 -0.592,3.929c-1.037,0.638 -1.966,-0.6 -4.287,-0.304c-0.709,0.087 -1.904,0.242 -2.688,1.108c-1.416,1.559 -0.929,4.817 0.696,6.546c1.217,1.296 2.204,0.813 2.888,1.913c1.037,1.67 -0.913,3.32 -1.196,7.05c-0.067,0.875 -0.388,5.141 2.091,7.554c1.367,1.329 2.659,1.191 3.192,2.616c0.575,1.55 -0.621,2.571 0.096,3.93c0.625,1.179 2.296,1.883 3.192,1.408c1.037,-0.546 0.729,-2.533 1.291,-2.617c0.6,-0.087 0.884,2.125 2.292,3.221c1.592,1.238 3.442,-1.017 5.879,0c0.65,0.275 1.833,0.958 1.792,1.717c-0.071,1.312 -3.767,0.991 -4.879,3.221m9.712,-105.205c-77.896,-44.262 -193.017,-41.883 -224.375,9.755c-28.442,46.837 39.433,89.083 58.529,204.862c30.45,184.583 -105.204,300.704 -43.896,375.583c25.805,31.509 79.417,47.08 107.309,29.263c68.737,-43.896 -63.642,-261.767 29.266,-365.821c57.834,-64.775 153.6,-30.162 175.596,-87.8c19.9,-52.146 -39.541,-130.108 -102.429,-165.842" style="fill:#231f20;fill-rule:nonzero;"/><path d="M221.53,154.484c-1.104,2.209 0.971,5.671 1.196,6.042c1.062,1.775 2.071,2.138 1.992,3.225c-0.113,1.496 -2.075,1.479 -2.788,3.221c-1.046,2.55 2.192,4.975 1.092,7.05c-0.821,1.55 -3.146,1.187 -3.384,2.517c-0.195,1.083 1.292,1.629 1.492,3.525c0.033,0.308 0.171,1.604 -0.5,2.416c-0.625,0.767 -1.946,1.079 -8.962,-0.3c-3.825,-0.75 -4.659,-1.083 -6.28,-0.704c-0.754,0.179 -3.287,0.775 -4.383,2.817c-0.954,1.791 0.121,2.971 -0.896,5.341c-0.666,1.563 -1.287,1.417 -2.191,2.921c-1.742,2.9 -1.888,7.571 0.2,9.363c1.312,1.129 2.691,0.425 3.587,1.712c0.771,1.113 0.758,3.092 -0.2,4.134c-1.883,2.041 -6.204,-0.875 -7.871,1.004c-0.325,0.371 -0.487,0.854 0.2,5.741c0.825,5.838 1.246,6.48 1.696,6.95c1.892,1.984 4.446,1.046 4.979,2.517c0.654,1.813 -3.087,3.621 -2.591,6.446c0.287,1.642 1.75,2.15 1.495,3.525c-0.208,1.137 -1.483,2.242 -2.291,2.012c-1.371,-0.387 -0.142,-4.233 -2.692,-7.05c-1.008,-1.112 -1.562,-0.912 -2.187,-2.012c-0.98,-1.717 0.033,-2.788 -0.305,-5.438c-0.358,-2.866 -1.987,-5.091 -2.687,-5.945c-1.567,-1.905 -2.604,-1.888 -2.988,-3.321c-0.508,-1.896 1.146,-2.538 0.896,-4.534c-0.271,-2.187 -2.354,-2.12 -5.179,-6.141c-1.112,-1.584 -1.162,-2.121 -2.092,-2.721c-1.312,-0.842 -2.429,-0.563 -5.379,-0.4c-5.991,0.325 -7.4,-0.488 -8.866,0.904c-1.163,1.1 -1.163,2.438 -2.096,2.517c-1.163,0.104 -1.421,-1.975 -3.088,-2.417c-1.679,-0.442 -2.183,1.471 -5.479,2.117c-1.696,0.329 -2.742,0.054 -3.387,0.904c-0.625,0.821 -0.046,1.6 -0.6,2.217c-1.042,1.166 -3.759,-0.867 -5.18,0.2c-1.512,1.141 -0.362,4.92 -0.895,5.037c-0.513,0.113 -0.905,-3.529 -3.288,-4.533c-1.192,-0.5 -2.142,-0.029 -2.787,-0.804c-0.746,-0.9 0.158,-1.98 -0.396,-2.721c-1.15,-1.509 -5.829,1.821 -8.475,-0.1c-0.392,-0.288 -0.892,-1.167 -1.892,-2.921c-0.579,-1.029 -1.246,-2.192 -1.787,-3.725c-1.017,-2.838 -0.363,-3.35 -1.1,-4.029c-1.621,-1.492 -4.488,1.254 -7.767,-0.2c-1.925,-0.854 -1.85,-2.2 -3.192,-2.217c-2.054,-0.029 -2.671,3.108 -6.075,4.129c-0.671,0.2 -2.05,0.613 -2.591,0c-0.834,-0.946 1.412,-3.071 2.291,-7.354c0.246,-1.2 0.767,-3.742 0.1,-6.746c-0.537,-2.412 -1.391,-3.087 -1.196,-5.037c0.209,-2.1 1.3,-2.313 1.296,-4.029c-0.008,-2.742 -2.808,-4.805 -3.387,-5.234c-1.538,-1.133 -3.2,-1.625 -5.879,-2.416c-2.092,-0.621 -3.384,-0.805 -3.388,-1.209c-0.004,-0.45 1.554,-0.462 3.588,-1.412c2.837,-1.325 4.312,-3.404 5.179,-4.634c0.916,-1.291 1.671,-2.362 1.3,-3.12c-0.521,-1.042 -2.488,-0.184 -3.888,-1.509c-1.116,-1.062 -1.421,-3.083 -0.766,-4.396c0.562,-1.133 1.416,-0.891 1.958,-1.95c0.958,-1.879 -0.996,-4.02 -0.196,-4.837c0.704,-0.713 2.263,0.896 4.383,0.204c0.717,-0.237 1.375,-0.829 2.688,-2.017c1.237,-1.112 1.858,-1.67 2.292,-2.316c1.654,-2.434 0.02,-4.159 1.395,-7.654c0.209,-0.534 0.842,-2.096 2.292,-3.521c1.854,-1.834 2.946,-1.367 3.583,-2.621c1.105,-2.163 -1.695,-4.429 -0.495,-6.95c0.029,-0.058 0.7,-1.417 2.091,-1.913c1.925,-0.683 3.242,0.98 4.284,0.3c1.379,-0.895 -0.225,-4.254 1.495,-5.737c0.792,-0.688 1.363,-0.171 2.292,-0.704c2.804,-1.617 3.167,-9.504 -0.4,-13.6c-1.062,-1.221 -1.642,-1.142 -2.187,-2.317c-1.342,-2.85 1.312,-4.954 0.195,-7.854c-0.895,-2.329 -3.229,-2.583 -3.187,-4.429c0.029,-1.196 1.012,-1.654 1.792,-2.721c3.237,-4.429 -2.846,-11.517 0.3,-17.325c0.145,-0.263 1.154,-2.088 1.891,-1.908c0.613,0.141 0.775,1.595 0.9,3.52c0.313,5.063 0.071,9.492 0,10.78c-0.296,5.083 -0.337,5.658 0,6.845c0.55,1.946 1.259,2.475 1.892,5.038c0.192,0.779 0.304,1.462 0.596,4.833c0.475,5.484 0.291,5.029 0.496,6.242c0.504,2.883 1.05,6.05 3.291,7.354c1.075,0.629 1.263,0.079 4.979,0.804c2.938,0.575 3.009,0.954 4.388,0.909c1.975,-0.067 3.462,-0.905 5.075,-1.813c1.592,-0.896 2.671,-1.5 3.687,-2.721c1.392,-1.658 2.717,-4.508 3.392,-7.25c0.175,-0.721 0.388,-1.783 1.092,-2.012c0.612,-0.204 1.025,0.408 2.291,0.704c1.471,0.342 1.884,-0.258 2.392,0.1c1.308,0.917 -1.537,4.771 0.1,8.058c0.5,0.996 0.9,0.917 2.192,3.021c1.137,1.846 1.033,2.25 1.691,2.721c1.538,1.092 4.538,0.658 5.88,-1.008c1.22,-1.521 0.412,-3.25 1.495,-3.83c1.071,-0.566 2.059,1.017 4.284,0.909c2.033,-0.104 2.746,-1.504 3.487,-1.109c1.509,0.809 -1.458,6.721 0.696,8.663c1.496,1.346 4.104,-0.458 5.779,1.308c0.984,1.038 0.742,2.35 1.892,2.817c0.987,0.404 1.767,-0.317 2.492,0.204c0.75,0.542 0.241,1.554 0.7,2.213c1.45,2.108 10.837,-2.088 17.029,-1.105c0.616,0.096 1.712,0.325 2.291,1.209c0.792,1.187 0.463,3.275 -0.591,3.929c-1.038,0.637 -1.967,-0.6 -4.288,-0.304c-0.708,0.087 -1.904,0.241 -2.687,1.108c-1.417,1.558 -0.929,4.817 0.696,6.546c1.216,1.296 2.204,0.812 2.887,1.912c1.038,1.671 -0.912,3.321 -1.196,7.05c-0.066,0.875 -0.387,5.142 2.092,7.555c1.367,1.329 2.658,1.191 3.192,2.616c0.575,1.55 -0.621,2.571 0.095,3.929c0.625,1.18 2.296,1.884 3.192,1.409c1.038,-0.546 0.729,-2.534 1.292,-2.617c0.6,-0.087 0.883,2.125 2.291,3.221c1.592,1.237 3.442,-1.017 5.88,-0c0.65,0.275 1.833,0.958 1.791,1.717c-0.071,1.312 -3.766,0.991 -4.879,3.22m9.713,-105.204c-77.896,-44.262 -193.017,-41.883 -224.375,9.754c-28.442,46.838 39.433,89.084 58.529,204.863c30.45,184.583 -105.204,300.704 -43.896,375.583c25.804,31.509 79.417,47.079 107.308,29.263c68.738,-43.896 -63.641,-261.767 29.267,-365.821c57.833,-64.775 153.6,-30.163 175.596,-87.8c19.9,-52.146 -39.542,-130.108 -102.429,-165.842" style="fill:#231f20;fill-rule:nonzero;"/></svg>